<svg xmlns="http://www.w3.org/2000/svg" viewBox="0 0 64 64" fill="none">
  <!-- Background circle -->
  <circle cx="32" cy="32" r="32" fill="#14532d"/>
  <!-- Mountain peaks -->
  <path d="M8 46 L22 18 L30 30 L38 14 L46 30 L52 22 L56 46Z" fill="#1b6b3a"/>
  <path d="M12 46 L24 22 L30 32 L38 18 L44 30 L50 24 L54 46Z" fill="#22863a"/>
  <!-- Snow caps -->
  <path d="M22 18 L26 26 L30 30 L34 22 L38 14 L42 22 L46 30 L48 26 L52 22 L50 28 L46 32 L42 26 L38 18 L34 26 L30 32 L26 28Z" fill="white" opacity="0.9"/>
  <!-- Sun -->
  <circle cx="50" cy="14" r="5" fill="#f59e0b"/>
  <circle cx="50" cy="14" r="3.2" fill="#fbbf24"/>
  <!-- Lake reflection -->
  <path d="M10 46 Q32 42 54 46" stroke="#60a5fa" stroke-width="1.5" fill="none" opacity="0.6"/>
  <path d="M14 49 Q32 46 50 49" stroke="#60a5fa" stroke-width="1" fill="none" opacity="0.4"/>
  <!-- N letter subtle -->
  <text x="22" y="58" font-family="Georgia, serif" font-size="11" font-weight="900" fill="white" opacity="0.95" letter-spacing="1">NT</text>
</svg>
